inDegrees=yes
name=ik_MT_012005D6_009-001_orientations
DataType=double
version=3
OpenSimVersion=4.4-2022-07-23-0e9fedc
endheader
time	pelvis_tilt	pelvis_list	pelvis_rotation	pelvis_tx	pelvis_ty	pelvis_tz	hip_flexion_r	hip_adduction_r	hip_rotation_r	knee_angle_r	knee_angle_r_beta	ankle_angle_r	subtalar_angle_r	mtp_angle_r	hip_flexion_l	hip_adduction_l	hip_rotation_l	knee_angle_l	knee_angle_l_beta	ankle_angle_l	subtalar_angle_l	mtp_angle_l	lumbar_extension	lumbar_bending	lumbar_rotation	arm_flex_r	arm_add_r	arm_rot_r	elbow_flex_r	pro_sup_r	wrist_flex_r	wrist_dev_r	arm_flex_l	arm_add_l	arm_rot_l	elbow_flex_l	pro_sup_l	wrist_flex_l	wrist_dev_l
6.079999999999915	0	0	0	0	0.93	0	-14.01105399921836	-49.99842299634436	-39.99881762756181	119.9946194393136	2.094301193893615	29.9424018324666	0	0	34.96990350670561	29.99759248904539	39.99870201393397	44.39623151798904	0.7748604154665889	-5.731794890618097	0	0	0	0	0	0	0	0	0	0	0	0	0	0	0	0	0	0	0
6.089999999999915	0	0	0	0	0.93	0	-15.39321432860022	-49.99838488995464	-39.99883253819832	119.9951103055932	2.09430976112638	29.88610476624703	0	0	35.16895984429405	29.99759492336088	39.99870130190337	44.40135393657908	0.7749498185366503	-5.803273474617187	0	0	0	0	0	0	0	0	0	0	0	0	0	0	0	0	0	0	0
6.099999999999914	0	0	0	0	0.93	0	-17.64347201915591	-49.99832695593086	-39.99884724704964	119.9955832401498	2.09431801539154	28.18704541534414	0	0	35.39625442597362	29.99759661813433	39.99870059488869	44.41406050996	0.7751715900787938	-5.865159879649375	0	0	0	0	0	0	0	0	0	0	0	0	0	0	0	0	0	0	0
6.109999999999914	0	0	0	0	0.93	0	-29.84791776860948	-49.99801564783822	-39.99884842050187	119.9964243137987	2.094332694895964	6.002661277419249	0	0	35.61047609602993	29.99759807279036	39.99869939057452	44.40208888031437	0.7749626457246482	-5.922923811597095	0	0	0	0	0	0	0	0	0	0	0	0	0	0	0	0	0	0	0
6.119999999999914	0	0	0	0	0.93	0	-29.95275097795518	-49.99802301102844	-39.99883494082808	119.9964903362658	2.094333847205396	4.128804087147096	0	0	35.84019568750161	29.99759947069609	39.99869827502537	44.40760879866738	0.7750589864743493	-5.970689010429266	0	0	0	0	0	0	0	0	0	0	0	0	0	0	0	0	0	0	0
6.129999999999914	0	0	0	0	0.93	0	-29.97098588207503	-49.99802893691879	-39.99882245631528	119.9965490482137	2.094334871922197	2.493390657128285	0	0	36.06220446150421	29.9976005386028	39.99869704608646	44.40729712315881	0.7750535467105271	-6.022388951925444	0	0	0	0	0	0	0	0	0	0	0	0	0	0	0	0	0	0	0
6.139999999999914	0	0	0	0	0.93	0	-29.97857392796985	-49.99803106476125	-39.99881055005635	119.9966032782454	2.094335818414804	0.9146424576873814	0	0	36.28716952877147	29.99760009718376	39.9986954298855	44.39851387455597	0.7749002501033864	-6.069822402280134	0	0	0	0	0	0	0	0	0	0	0	0	0	0	0	0	0	0	0
6.149999999999913	0	0	0	0	0.93	0	-29.98262484169515	-49.99802972856798	-39.99879940114107	119.9966506261487	2.094336644791611	-0.561971189305025	0	0	36.51488796338362	29.99759838770595	39.99869351917164	44.39159184702692	0.7747794379320906	-6.107863096983528	0	0	0	0	0	0	0	0	0	0	0	0	0	0	0	0	0	0	0
6.159999999999913	0	0	0	0	0.93	0	-29.98507159081604	-49.99802618119207	-39.9987893196183	119.9966897126035	2.094337326978939	-1.919452567759905	0	0	36.74997807727602	29.99759605097011	39.99869142691855	44.37928008279435	0.774564557109503	-6.138916676460819	0	0	0	0	0	0	0	0	0	0	0	0	0	0	0	0	0	0	0
6.169999999999913	0	0	0	0	0.93	0	-29.98669570247496	-49.9980193346025	-39.99877997486304	119.99672397439	2.094337924959921	-3.222030190316838	0	0	36.98584549183312	29.99759268672161	39.99868898185711	44.3663395422429	0.7743387020698924	-6.162890096773634	0	0	0	0	0	0	0	0	0	0	0	0	0	0	0	0	0	0	0
6.179999999999913	0	0	0	0	0.93	0	-29.98787875952266	-49.99800989111156	-39.99877092896936	119.9967553523887	2.094338472609311	-4.56082018877108	0	0	37.22253088281936	29.99758897740816	39.99868649915748	44.35887867332377	0.7742084853421938	-6.192755280916505	0	0	0	0	0	0	0	0	0	0	0	0	0	0	0	0	0	0	0
6.189999999999912	0	0	0	0	0.93	0	-29.98877278948842	-49.99799827404968	-39.99876192959831	119.996783864983	2.094338970247959	-5.950727822614409	0	0	37.47124908595271	29.9975862685743	39.99868412335888	44.34415276946501	0.7739514698345265	-6.251159728860819	0	0	0	0	0	0	0	0	0	0	0	0	0	0	0	0	0	0	0
6.199999999999912	0	0	0	0	0.93	0	-29.98944660351943	-49.99798487018008	-39.99875313840935	119.9968092932637	2.094339414055181	-7.354414631134262	0	0	37.74136842701775	29.99758435592556	39.99868177506113	44.32446281242421	0.7736078152545882	-6.335614233064701	0	0	0	0	0	0	0	0	0	0	0	0	0	0	0	0	0	0	0
6.209999999999912	0	0	0	0	0.93	0	-29.98991535886929	-49.99796979275494	-39.99874522265903	119.9968304248101	2.094339782870242	-8.739674741673186	0	0	38.03592823014989	29.99758377142481	39.99867948728104	44.30693353441909	0.7733018716379015	-6.46360696332753	0	0	0	0	0	0	0	0	0	0	0	0	0	0	0	0	0	0	0
6.219999999999912	0	0	0	0	0.93	0	-29.99018258670885	-49.99795278868512	-39.99873896163525	119.9968464974383	2.094340063390524	-10.05702439266003	0	0	38.34086471552482	29.99758382098845	39.99867705901135	44.28842529249422	0.7729788418775567	-6.638061067952638	0	0	0	0	0	0	0	0	0	0	0	0	0	0	0	0	0	0	0
6.229999999999912	0	0	0	0	0.93	0	-29.99031962142927	-49.99793584253555	-39.99873438215631	119.9968600349251	2.094340299664242	-11.29586729709911	0	0	38.64398437727851	29.99758366673287	39.99867429264842	44.27019756912322	0.7726607080895901	-6.886211591281282	0	0	0	0	0	0	0	0	0	0	0	0	0	0	0	0	0	0	0
6.239999999999911	0	0	0	0	0.93	0	-29.99033097039483	-49.99792864934947	-39.99873521349347	119.9968804493515	2.094340655963197	-12.18131711290528	0	0	38.95374529356039	29.99758370931256	39.99867129908862	44.2410937056345	0.7721527498466609	-7.212363742690707	0	0	0	0	0	0	0	0	0	0	0	0	0	0	0	0	0	0	0
6.249999999999911	0	0	0	0	0.93	0	-29.99066856319461	-49.99791906071747	-39.9987248484651	119.996876391962	2.094340585148391	-14.34700847782533	0	0	39.28114450039297	29.99758458697969	39.99866835350665	44.20832669787445	0.7715808576752217	-7.585044499955434	0	0	0	0	0	0	0	0	0	0	0	0	0	0	0	0	0	0	0
6.259999999999911	0	0	0	0	0.93	0	-29.99129430684566	-49.99791261534807	-39.99870633323752	119.9968660012131	2.094340403795611	-17.39214711977354	0	0	39.62480147039317	29.99758645072533	39.99866588992489	44.20493222507801	0.7715216129485544	-7.942061408075419	0	0	0	0	0	0	0	0	0	0	0	0	0	0	0	0	0	0	0
6.269999999999911	0	0	0	0	0.93	0	-29.99154522038157	-49.99790751290836	-39.99869920614552	119.9968737748071	2.09434053947042	-18.97613524241278	0	0	39.98266498433748	29.99759058421635	39.99866275458009	44.22145741464272	0.7718100319159747	-8.280985458919682	0	0	0	0	0	0	0	0	0	0	0	0	0	0	0	0	0	0	0
